<svg xmlns="http://www.w3.org/2000/svg" xmlns:xlink="http://www.w3.org/1999/xlink" width="500" zoomAndPan="magnify" viewBox="0 0 375 187.499995" height="250" preserveAspectRatio="xMidYMid meet" version="1.0"><defs><g/><clipPath id="1e6d3320d6"><path d="M 51 35.023438 L 130.496094 35.023438 L 130.496094 152.027344 L 51 152.027344 Z M 51 35.023438 " clip-rule="nonzero"/></clipPath><clipPath id="1ef8f4a0af"><path d="M 20 35.023438 L 57 35.023438 L 57 128 L 20 128 Z M 20 35.023438 " clip-rule="nonzero"/></clipPath><clipPath id="fcdf251fa7"><path d="M 19.199219 77 L 33 77 L 33 115 L 19.199219 115 Z M 19.199219 77 " clip-rule="nonzero"/></clipPath></defs><g fill="#ffffff" fill-opacity="1"><g transform="translate(146.558557, 105.113088)"><g><path d="M 2.734375 0 L 2.734375 -28.125 L 8.84375 -28.125 L 17.796875 -10.28125 L 26.640625 -28.125 L 32.75 -28.125 L 32.75 0 L 27.609375 0 L 27.609375 -19.40625 L 19.765625 -4.015625 L 15.71875 -4.015625 L 7.875 -19.40625 L 7.875 0 Z M 2.734375 0 "/></g></g></g><g fill="#ffffff" fill-opacity="1"><g transform="translate(188.263055, 105.113088)"><g><path d="M 2.734375 0 L 2.734375 -28.125 L 21.09375 -28.125 L 21.09375 -23.984375 L 7.875 -23.984375 L 7.875 -16.28125 L 19.890625 -16.28125 L 19.890625 -12.25 L 7.875 -12.25 L 7.875 -4.140625 L 21.09375 -4.140625 L 21.09375 0 Z M 2.734375 0 "/></g></g></g><g fill="#ffffff" fill-opacity="1"><g transform="translate(217.71448, 105.113088)"><g><path d="M 2.734375 0 L 2.734375 -28.125 L 8.84375 -28.125 L 17.796875 -10.28125 L 26.640625 -28.125 L 32.75 -28.125 L 32.75 0 L 27.609375 0 L 27.609375 -19.40625 L 19.765625 -4.015625 L 15.71875 -4.015625 L 7.875 -19.40625 L 7.875 0 Z M 2.734375 0 "/></g></g></g><g fill="#ffffff" fill-opacity="1"><g transform="translate(259.416862, 105.113088)"><g><path d="M 15.078125 0.484375 C 12.441406 0.484375 10.132812 -0.125 8.15625 -1.34375 C 6.175781 -2.5625 4.632812 -4.257812 3.53125 -6.4375 C 2.4375 -8.625 1.890625 -11.15625 1.890625 -14.03125 C 1.890625 -16.894531 2.441406 -19.425781 3.546875 -21.625 C 4.660156 -23.820312 6.242188 -25.535156 8.296875 -26.765625 C 10.347656 -27.992188 12.765625 -28.609375 15.546875 -28.609375 C 18.710938 -28.609375 21.347656 -27.84375 23.453125 -26.3125 C 25.554688 -24.789062 26.914062 -22.691406 27.53125 -20.015625 L 23.625 -20.015625 C 23.25 -21.703125 22.359375 -23.039062 20.953125 -24.03125 C 19.546875 -25.019531 17.742188 -25.515625 15.546875 -25.515625 C 13.484375 -25.515625 11.6875 -25.050781 10.15625 -24.125 C 8.632812 -23.207031 7.453125 -21.890625 6.609375 -20.171875 C 5.765625 -18.460938 5.34375 -16.414062 5.34375 -14.03125 C 5.34375 -11.644531 5.757812 -9.59375 6.59375 -7.875 C 7.425781 -6.164062 8.578125 -4.847656 10.046875 -3.921875 C 11.515625 -2.992188 13.226562 -2.53125 15.1875 -2.53125 C 18.1875 -2.53125 20.445312 -3.40625 21.96875 -5.15625 C 23.5 -6.914062 24.375 -9.320312 24.59375 -12.375 L 16.484375 -12.375 L 16.484375 -15.03125 L 28.046875 -15.03125 L 28.046875 0 L 24.953125 0 L 24.671875 -4.625 C 23.648438 -2.988281 22.40625 -1.726562 20.9375 -0.84375 C 19.46875 0.0390625 17.515625 0.484375 15.078125 0.484375 Z M 15.078125 0.484375 "/></g></g></g><g fill="#ffffff" fill-opacity="1"><g transform="translate(296.059432, 105.113088)"><g><path d="M 2.96875 0 L 2.96875 -28.125 L 20.375 -28.125 L 20.375 -25.359375 L 6.34375 -25.359375 L 6.34375 -15.546875 L 19.171875 -15.546875 L 19.171875 -12.8125 L 6.34375 -12.8125 L 6.34375 -2.765625 L 20.375 -2.765625 L 20.375 0 Z M 2.96875 0 "/></g></g></g><g fill="#ffffff" fill-opacity="1"><g transform="translate(324.948431, 105.113088)"><g><path d="M 2.96875 0 L 2.96875 -28.125 L 6.34375 -28.125 L 21.34375 -5.59375 L 21.34375 -28.125 L 24.71875 -28.125 L 24.71875 0 L 21.34375 0 L 6.34375 -22.546875 L 6.34375 0 Z M 2.96875 0 "/></g></g></g><g clip-path="url(#1e6d3320d6)"><path fill="#ffffff" d="M 73.484375 60.355469 C 73.847656 60.71875 74.304688 60.902344 74.757812 60.902344 L 85.664062 60.902344 C 86.117188 60.902344 86.574219 60.71875 86.9375 60.355469 L 89.933594 57.347656 C 90.84375 57.804688 91.84375 58.078125 92.933594 58.078125 C 96.480469 58.078125 99.296875 55.253906 99.296875 51.699219 C 99.296875 48.144531 96.480469 45.320312 92.933594 45.320312 C 89.390625 45.320312 86.574219 48.144531 86.574219 51.699219 C 86.574219 52.792969 86.84375 53.792969 87.300781 54.707031 L 84.9375 57.257812 L 75.484375 57.257812 L 69.304688 51.058594 L 69.304688 39.03125 L 74.574219 39.03125 C 74.757812 39.03125 74.9375 39.121094 75.121094 39.03125 C 91.296875 38.394531 107.929688 45.773438 116.019531 60.902344 L 109.929688 60.902344 C 109.113281 58.257812 106.75 56.34375 103.839844 56.34375 C 100.296875 56.34375 97.480469 59.171875 97.480469 62.722656 C 97.480469 65.640625 99.386719 68.007812 102.023438 68.828125 L 102.023438 85.507812 L 88.390625 85.507812 C 87.390625 85.507812 86.574219 86.324219 86.574219 87.328125 L 86.574219 97.351562 L 82.9375 97.351562 L 82.9375 86.417969 C 82.9375 85.871094 82.664062 85.414062 82.300781 85.050781 L 76.574219 80.128906 L 76.574219 68.191406 L 84.027344 68.191406 L 86.480469 70.652344 C 86.027344 71.5625 85.753906 72.566406 85.753906 73.660156 C 85.753906 77.214844 88.570312 80.039062 92.117188 80.039062 C 95.660156 80.039062 98.480469 77.214844 98.480469 73.660156 C 98.480469 70.105469 95.660156 67.28125 92.117188 67.28125 C 91.027344 67.28125 90.027344 67.554688 89.117188 68.007812 L 86.117188 65.003906 C 85.664062 64.730469 85.210938 64.546875 84.753906 64.546875 L 74.757812 64.546875 C 73.757812 64.546875 72.941406 65.367188 72.941406 66.371094 L 72.941406 80.949219 C 72.941406 81.496094 73.210938 81.953125 73.574219 82.316406 L 79.300781 87.238281 L 79.300781 97.351562 L 72.03125 97.351562 C 71.578125 97.351562 71.121094 97.535156 70.757812 97.898438 L 56.214844 112.480469 C 55.851562 112.84375 55.671875 113.300781 55.671875 113.753906 L 55.671875 128.609375 C 53.035156 129.429688 51.128906 131.796875 51.128906 134.714844 C 51.128906 138.269531 53.945312 141.09375 57.488281 141.09375 C 61.035156 141.09375 63.851562 138.269531 63.851562 134.714844 C 63.851562 131.796875 61.941406 129.429688 59.308594 128.609375 L 59.308594 114.484375 L 72.757812 100.996094 L 105.660156 100.996094 C 106.386719 100.996094 107.023438 100.632812 107.292969 99.996094 L 112.746094 89.058594 C 112.839844 88.785156 112.929688 88.511719 112.929688 88.238281 L 112.929688 81.859375 L 120.925781 81.859375 L 120.925781 89.332031 L 118.566406 94.527344 C 118.382812 94.984375 118.382812 95.4375 118.472656 95.894531 L 126.472656 117.308594 C 126.472656 117.398438 126.472656 117.492188 126.472656 117.582031 C 126.378906 117.671875 126.378906 117.671875 126.289062 117.671875 L 118.472656 117.671875 C 117.929688 117.671875 117.382812 117.945312 117.019531 118.402344 C 116.65625 118.859375 116.566406 119.496094 116.746094 120.042969 L 118.929688 126.421875 L 114.746094 127.878906 C 114.203125 128.0625 113.746094 128.519531 113.566406 129.066406 C 113.382812 129.609375 113.476562 130.25 113.839844 130.703125 L 116.566406 134.441406 L 114.203125 136.261719 C 113.746094 136.628906 113.476562 137.175781 113.476562 137.722656 L 113.476562 142.367188 C 113.476562 144.464844 112.382812 146.46875 110.566406 147.472656 C 109.75 148.019531 108.75 148.292969 107.75 148.292969 C 100.207031 148.382812 71.121094 138.816406 71.121094 122.867188 L 71.121094 119.039062 C 71.121094 118.039062 70.304688 117.21875 69.304688 117.21875 C 68.304688 117.21875 67.488281 118.039062 67.488281 119.039062 L 67.488281 122.867188 C 67.488281 142.277344 100.113281 152.027344 107.839844 152.027344 C 109.476562 152.027344 111.113281 151.574219 112.476562 150.753906 C 115.382812 149.019531 117.109375 145.921875 117.109375 142.460938 L 117.109375 138.632812 L 120.109375 136.261719 C 120.835938 135.625 121.019531 134.53125 120.472656 133.804688 L 118.199219 130.613281 L 121.835938 129.335938 C 122.746094 128.972656 123.289062 127.972656 122.925781 127.058594 L 121.019531 121.320312 L 126.289062 121.320312 C 127.5625 121.320312 128.742188 120.679688 129.472656 119.679688 C 130.199219 118.585938 130.378906 117.21875 129.925781 116.035156 L 122.199219 95.347656 L 124.382812 90.519531 C 124.472656 90.246094 124.5625 90.0625 124.5625 89.789062 L 124.5625 79.765625 C 124.019531 66.003906 118.382812 54.433594 108.386719 46.230469 C 99.296875 38.757812 87.574219 35.023438 75.121094 35.386719 C 75.03125 35.386719 74.847656 35.386719 74.757812 35.386719 L 67.488281 35.386719 C 66.488281 35.386719 65.667969 36.207031 65.667969 37.207031 L 65.667969 51.789062 C 65.667969 52.246094 65.851562 52.699219 66.214844 53.066406 Z M 92.933594 49.054688 C 94.480469 49.054688 95.660156 50.238281 95.660156 51.789062 C 95.660156 53.339844 94.480469 54.523438 92.933594 54.523438 C 91.390625 54.523438 90.207031 53.339844 90.207031 51.789062 C 90.207031 50.238281 91.390625 49.054688 92.933594 49.054688 Z M 92.027344 70.925781 C 93.570312 70.925781 94.753906 72.109375 94.753906 73.660156 C 94.753906 75.207031 93.570312 76.394531 92.027344 76.394531 C 90.480469 76.394531 89.300781 75.207031 89.300781 73.660156 C 89.300781 72.109375 90.480469 70.925781 92.027344 70.925781 Z M 60.214844 134.714844 C 60.214844 136.261719 59.035156 137.449219 57.488281 137.449219 C 55.945312 137.449219 54.761719 136.261719 54.761719 134.714844 C 54.761719 133.164062 55.945312 131.980469 57.488281 131.980469 C 59.035156 131.980469 60.214844 133.164062 60.214844 134.714844 Z M 101.113281 62.722656 C 101.113281 61.175781 102.296875 59.992188 103.839844 59.992188 C 105.386719 59.992188 106.566406 61.175781 106.566406 62.722656 C 106.566406 64.273438 105.386719 65.457031 103.839844 65.457031 C 102.296875 65.457031 101.113281 64.273438 101.113281 62.722656 Z M 120.835938 78.214844 L 111.113281 78.214844 C 110.113281 78.214844 109.292969 79.035156 109.292969 80.039062 L 109.292969 87.785156 L 104.566406 97.351562 L 90.207031 97.351562 L 90.207031 89.152344 L 103.839844 89.152344 C 104.839844 89.152344 105.660156 88.332031 105.660156 87.328125 L 105.660156 68.828125 C 107.75 68.191406 109.292969 66.550781 109.929688 64.546875 L 117.746094 64.546875 C 119.382812 68.648438 120.472656 73.203125 120.835938 78.214844 Z M 120.835938 78.214844 " fill-opacity="1" fill-rule="nonzero"/></g><g clip-path="url(#1ef8f4a0af)"><path fill="#ffffff" d="M 24.769531 47.871094 L 24.769531 63.636719 C 24.769531 64.183594 25.042969 64.730469 25.40625 65.09375 L 35.402344 73.113281 C 35.496094 73.203125 35.585938 73.203125 35.675781 73.296875 L 35.675781 92.796875 C 35.675781 93.25 35.859375 93.617188 36.128906 93.980469 L 41.128906 99.8125 L 41.128906 114.941406 C 38.492188 115.761719 36.585938 118.128906 36.585938 121.046875 C 36.585938 124.597656 39.402344 127.425781 42.945312 127.425781 C 46.492188 127.425781 49.308594 124.597656 49.308594 121.046875 C 49.308594 118.128906 47.402344 115.761719 44.765625 114.941406 L 44.765625 99.175781 C 44.765625 98.71875 44.582031 98.355469 44.308594 97.992188 L 39.3125 92.160156 L 39.3125 52.152344 L 48.402344 57.347656 L 48.402344 61.085938 C 45.765625 61.902344 43.855469 64.273438 43.855469 67.191406 C 43.855469 70.742188 46.671875 73.570312 50.21875 73.570312 C 53.761719 73.570312 56.582031 70.742188 56.582031 67.191406 C 56.582031 64.273438 54.671875 61.902344 52.035156 61.085938 L 52.035156 56.34375 C 52.035156 55.707031 51.671875 55.070312 51.128906 54.796875 L 38.402344 47.507812 C 37.859375 47.140625 37.128906 47.140625 36.585938 47.507812 C 36.039062 47.871094 35.675781 48.417969 35.675781 49.054688 L 35.675781 68.648438 L 28.40625 62.722656 L 28.40625 47.871094 C 31.042969 47.050781 32.949219 44.679688 32.949219 41.765625 C 32.949219 38.210938 30.132812 35.386719 26.585938 35.386719 C 23.042969 35.386719 20.226562 38.210938 20.226562 41.765625 C 20.226562 44.679688 22.132812 47.050781 24.769531 47.871094 Z M 45.671875 121.046875 C 45.671875 122.59375 44.492188 123.777344 42.945312 123.777344 C 41.402344 123.777344 40.21875 122.59375 40.21875 121.046875 C 40.21875 119.496094 41.402344 118.3125 42.945312 118.3125 C 44.492188 118.3125 45.671875 119.496094 45.671875 121.046875 Z M 52.945312 67.28125 C 52.945312 68.828125 51.761719 70.015625 50.21875 70.015625 C 48.671875 70.015625 47.492188 68.828125 47.492188 67.28125 C 47.492188 65.730469 48.671875 64.546875 50.21875 64.546875 C 51.761719 64.546875 52.945312 65.730469 52.945312 67.28125 Z M 26.585938 39.03125 C 28.132812 39.03125 29.3125 40.214844 29.3125 41.765625 C 29.3125 43.3125 28.132812 44.5 26.585938 44.5 C 25.042969 44.5 23.859375 43.3125 23.859375 41.765625 C 23.859375 40.214844 25.042969 39.03125 26.585938 39.03125 Z M 26.585938 39.03125 " fill-opacity="1" fill-rule="nonzero"/></g><path fill="#ffffff" d="M 65.667969 64.363281 L 65.667969 91.066406 L 52.035156 104.734375 L 52.035156 91.613281 C 54.671875 90.792969 56.582031 88.421875 56.582031 85.507812 C 56.582031 81.953125 53.761719 79.128906 50.21875 79.128906 C 46.671875 79.128906 43.855469 81.953125 43.855469 85.507812 C 43.855469 88.421875 45.765625 90.792969 48.402344 91.613281 L 48.402344 109.199219 C 48.402344 109.929688 48.855469 110.566406 49.492188 110.839844 C 49.765625 111.019531 49.945312 111.019531 50.21875 111.019531 C 50.671875 111.019531 51.128906 110.839844 51.492188 110.476562 L 68.757812 93.160156 C 69.121094 92.796875 69.304688 92.339844 69.304688 91.886719 L 69.304688 63.636719 C 69.304688 63.179688 69.121094 62.722656 68.757812 62.359375 L 62.035156 55.617188 L 62.035156 41.765625 C 62.035156 40.761719 61.214844 39.941406 60.214844 39.941406 C 59.214844 39.941406 58.398438 40.761719 58.398438 41.765625 L 58.398438 56.34375 C 58.398438 56.800781 58.578125 57.257812 58.941406 57.621094 Z M 50.21875 88.238281 C 48.671875 88.238281 47.492188 87.054688 47.492188 85.507812 C 47.492188 83.957031 48.671875 82.773438 50.21875 82.773438 C 51.761719 82.773438 52.945312 83.957031 52.945312 85.507812 C 52.945312 87.054688 51.761719 88.238281 50.21875 88.238281 Z M 50.21875 88.238281 " fill-opacity="1" fill-rule="nonzero"/><g clip-path="url(#fcdf251fa7)"><path fill="#ffffff" d="M 19.316406 108.289062 C 19.316406 111.839844 22.132812 114.667969 25.679688 114.667969 C 29.222656 114.667969 32.039062 111.839844 32.039062 108.289062 C 32.039062 105.371094 30.132812 103.003906 27.496094 102.183594 L 27.496094 89.789062 C 30.132812 88.96875 32.039062 86.597656 32.039062 83.683594 C 32.039062 80.128906 29.222656 77.304688 25.679688 77.304688 C 22.132812 77.304688 19.316406 80.128906 19.316406 83.683594 C 19.316406 86.597656 21.226562 88.96875 23.859375 89.789062 L 23.859375 102.183594 C 21.226562 103.003906 19.316406 105.371094 19.316406 108.289062 Z M 22.953125 83.683594 C 22.953125 82.132812 24.132812 80.949219 25.679688 80.949219 C 27.222656 80.949219 28.40625 82.132812 28.40625 83.683594 C 28.40625 85.234375 27.222656 86.417969 25.679688 86.417969 C 24.132812 86.417969 22.953125 85.234375 22.953125 83.683594 Z M 25.679688 105.554688 C 27.222656 105.554688 28.40625 106.738281 28.40625 108.289062 C 28.40625 109.835938 27.222656 111.019531 25.679688 111.019531 C 24.132812 111.019531 22.953125 109.835938 22.953125 108.289062 C 22.953125 106.738281 24.132812 105.554688 25.679688 105.554688 Z M 25.679688 105.554688 " fill-opacity="1" fill-rule="nonzero"/></g></svg>